<?xml version="1.0" encoding="utf-8"?>
<!-- Generator: Adobe Illustrator 19.2.0, SVG Export Plug-In . SVG Version: 6.00 Build 0)  -->
<svg version="1.1" id="Слой_1" xmlns="http://www.w3.org/2000/svg" xmlns:xlink="http://www.w3.org/1999/xlink" x="0px" y="0px"
	 viewBox="0 0 700 464" style="enable-background:new 0 0 700 464;" xml:space="preserve">
<g>
	<path d="M700,54c0,118.7,0,237.3,0,356c-0.3,1.1-0.8,2.2-1,3.3c-4.1,24.5-21.7,43.4-45.8,49.1c-2.1,0.5-4.1,1.1-6.2,1.6
		c-198,0-396,0-594,0c-0.9-0.3-1.8-0.8-2.7-1c-24.5-4.8-40.2-19.4-47.8-42.9c-1.1-3.3-1.7-6.7-2.5-10.1C0,291.3,0,172.7,0,54
		c0.3-1.1,0.8-2.2,1-3.3c4-24.5,22.1-43.8,46.3-49.2c1.9-0.4,3.8-1,5.7-1.5c198,0,396,0,594,0c0.9,0.3,1.8,0.8,2.7,1
		c24.5,4.8,40.2,19.4,47.8,42.9C698.6,47.2,699.2,50.6,700,54z M349.8,22.9c-96.3,0-192.6,0-288.9,0c-21.8,0-38.2,15.9-38.2,37.6
		c-0.1,114.1-0.1,228.3,0,342.4c0,22.4,16.1,38.2,38.6,38.2c192.5,0,384.9,0,577.4,0c2.7,0,5.4,0,8-0.5
		c18.9-3.6,30.8-18.7,30.8-39.1c0-113,0-226,0-338.9c0-24.1-15.6-39.7-39.7-39.7C541.7,22.9,445.8,22.9,349.8,22.9z"/>
	<path d="M200.6,390.2c-34.2,0-68.3-0.6-102.5,0.2c-21.2,0.5-41.7-17.5-36.6-44.3c1.6-8.7,2.9-17.4,4.4-26.1
		c2.8-15.7,12-25.6,27.3-29.7c18.2-4.9,36.4-9.6,54.6-14.1c3.7-0.9,5.1-2.2,5.5-6.5c0.8-10.7-1.9-18.4-10.6-26.1
		c-17.2-15.2-25.3-35.6-25.7-58.7c-0.3-13.5-0.3-27,0-40.5c0.8-39.7,32.2-70.6,71.9-70.5c13.8,0,27.9-0.5,41.2,2.4
		c31,6.7,53.3,35.2,53.8,66.9c0.3,17.8,0.7,35.7-1.2,53.4c-2.3,21.8-13.7,39.4-30.8,53c-3.1,2.5-4.4,4.9-4.1,8.8
		c0.3,3.6,0.4,7.4,0,11c-0.4,4.1,1.1,5.8,5.1,6.7c18.1,4.5,36.1,9.3,54.1,14c15.8,4.1,25.3,14,28.1,30.2c1.8,10.3,3.9,20.6,4.9,31.1
		c2,21.9-13.9,38.8-35.8,38.9C269.6,390.2,235.1,390.2,200.6,390.2z M200.3,367.8c30,0,60,0,90,0c4.8,0,9.7,0.2,14.5-0.1
		c9.1-0.5,14.4-7.5,12.9-16.4c-1.5-8.7-3.1-17.4-4.3-26.1c-1-7.7-5.3-11.6-12.6-13.4c-21.6-5.4-43.2-11.2-64.7-16.8
		c-7.6-2-10.2-5.3-10.3-13.1c-0.1-10.8,0.2-21.7-0.1-32.5c-0.2-6.4,2.3-10.5,7.6-14c16.1-10.5,26.2-25.4,27.8-44.6
		c1.3-16.1,1.5-32.3,0.5-48.4c-1.5-22.9-17.7-41.5-39.5-44.9c-12.4-1.9-25.3-1.6-37.9-0.7c-25.5,1.8-44.8,23-45.2,48.7
		c-0.2,12-0.1,24,0,36c0.2,23.4,9.9,41.8,29.6,54.6c4.5,2.9,6.7,6.6,6.7,11.9c-0.1,11.3,0,22.7-0.1,34c0,7.8-2.7,11-10.4,13
		c-21.7,5.7-43.4,11.4-65.2,17c-6.9,1.8-11,5.7-12,12.9c-1.1,8.1-2.6,16.1-3.9,24.1c-2.1,13.1,2.8,18.9,16,18.9
		C133.3,367.8,166.8,367.8,200.3,367.8z"/>
	<path d="M507.1,390.2c-35.3,0-70.7-0.4-106,0.2c-17.3,0.3-26.3-13-26.2-26.1c0.4-47.3,0.2-94.7,0.2-142c0-16.5,9.5-26.1,26-26.1
		c70.8,0,141.6,0,212.5,0c16,0,25.6,9.4,25.6,25.4c0.1,47.8,0.1,95.7,0,143.5c0,15.9-9.4,25.2-25.2,25.2
		C578.4,390.2,542.7,390.2,507.1,390.2z M397.5,219c0,2.2,0,4,0,5.8c0,45.6,0.1,91.3-0.1,136.9c0,4.8,1.3,6.1,6.1,6.1
		c69.1-0.1,138.3-0.1,207.4,0c4.7,0,6.3-1.1,6.2-6c-0.2-45.8-0.1-91.6-0.1-137.4c0-1.8-0.2-3.5-0.3-5.4C543.6,219,471,219,397.5,219
		z"/>
	<path d="M507.2,135c39.8,0,79.6,0,119.4,0c8,0,12.7,4.4,12.6,11.5c-0.1,5.3-3.5,9.5-8.8,10.6c-2.1,0.4-4.3,0.5-6.5,0.5
		c-77.9,0-155.9,0-233.8,0c-1.2,0-2.3,0-3.5,0c-6.8-0.5-11.5-5.2-11.5-11.4c0-6.5,4.9-11.1,12.1-11.2c33.6-0.1,67.3,0,100.9,0
		C494.5,135,500.8,135,507.2,135z"/>
	<path d="M458.9,86c23.8,0,47.6-0.1,71.4,0c8.9,0,14.6,7.3,11.3,14.9c-1.3,2.9-4.7,5.2-7.6,7c-1.8,1.1-4.5,0.7-6.8,0.7
		c-45.6,0-91.2,0-136.9,0c-1.3,0-2.7,0.1-4-0.1c-6.8-0.6-11.4-5.4-11.2-11.7c0.2-6.3,5-10.8,11.9-10.9C411,86,435,86,458.9,86z"/>
	<path d="M507,280c-23.5,0-47,0-70.4,0c-8,0-13-4.4-13-11.2c0-6.8,5.1-11.3,13-11.3c47.1,0,94.2,0,141.4,0c6.7,0,10.8,2.7,12.4,8
		c1.5,4.8,0.4,9.2-3.7,12c-2.4,1.6-5.8,2.5-8.8,2.5C554.2,280,530.6,280,507,280z"/>
	<path d="M507.2,329c-23.8,0-47.6,0-71.4,0c-6.9,0-11.4-3.9-12.1-10c-0.6-5.6,2.8-10.7,8.3-12c2.1-0.5,4.3-0.6,6.4-0.6
		c45.9,0,91.9,0,137.8,0c1.2,0,2.3-0.1,3.5,0c6.8,0.5,11.3,5.2,11.2,11.6c-0.1,6.3-4.9,10.9-11.8,10.9
		C555.1,329,531.2,329,507.2,329z"/>
</g>
</svg>
