<?xml version="1.0" encoding="utf-8"?>
<!-- Generator: Adobe Illustrator 19.2.0, SVG Export Plug-In . SVG Version: 6.00 Build 0)  -->
<svg version="1.1" id="Слой_1" xmlns="http://www.w3.org/2000/svg" xmlns:xlink="http://www.w3.org/1999/xlink" x="0px" y="0px"
	 viewBox="0 0 700 560" style="enable-background:new 0 0 700 560;" xml:space="preserve">
<style type="text/css">
	.st0{fill:#FFFFFF;}
</style>
<g>
	<path d="M0,425C0,293,0,161,0,29c0.4-1.2,0.9-2.4,1.3-3.6C4.4,14.9,10.8,7.4,20.7,3c2.7-1.2,5.5-2,8.3-3c214,0,428,0,642,0
		c1.2,0.4,2.4,0.9,3.6,1.3c10.8,3.3,18.5,9.9,22.8,20.4c1,2.4,1.7,4.9,2.6,7.4c0,132,0,264,0,396c-0.2,0.2-0.6,0.4-0.7,0.7
		c-6.3,20.1-17,28-38.2,28c-75.8,0-151.7,0-227.5,0c-2.1,0-4.2,0-6.7,0c3.4,25.6,6.7,50.4,10,75.5c14.1,0,27.6-0.1,41,0
		c8.8,0.1,15,4.7,16.6,12.2c1.6,7.4-2.3,14-10.5,17.6c-0.4,0.2-0.8,0.6-1.1,0.9c-88.7,0-177.3,0-266,0c-0.4-0.3-0.7-0.7-1.1-0.9
		c-8.2-3.7-12.1-10.2-10.5-17.6c1.7-7.5,7.8-12.1,16.6-12.2c5.7-0.1,11.3,0,17,0c8,0,15.9,0,24.1,0c3.3-25.3,6.6-50,10-75.5
		c-2.2,0-3.9,0-5.7,0c-13.3,0-26.7,0-40,0c-63.7,0-127.3,0-191,0c-16,0-28.6-8.1-33.9-21.7C1.6,429.7,0.8,427.3,0,425z M669.2,359.9
		c0-2.1,0-3.8,0-5.4c0-105.6,0-211.3,0-316.9c0-6.5-0.3-6.8-6.7-6.8c-208.3,0-416.6,0-624.9,0c-6.4,0-6.7,0.3-6.7,6.8
		c0,105.6,0,211.3,0,316.9c0,1.8,0.2,3.5,0.2,5.4C243.9,359.9,456.1,359.9,669.2,359.9z M669.2,390.9c-213.1,0-425.5,0-638.3,0
		c0,8.2,0,16,0,23.8c0,8.4,0,8.4,8.2,8.4c207.3,0,414.7,0,622,0c1.3,0,2.9,0.5,3.9-0.1c1.6-0.9,4-2.4,4-3.8
		C669.3,409.9,669.2,400.6,669.2,390.9z M293.9,528.9c37.7,0,74.8,0,112.1,0c-3.3-25.2-6.6-50.1-9.9-74.8c-31.1,0-61.6,0-92.3,0
		C300.5,479,297.3,503.7,293.9,528.9z"/>
	<path class="st0" d="M293.9,528.9c3.3-25.2,6.6-49.9,9.9-74.8c30.8,0,61.2,0,92.3,0c3.3,24.8,6.6,49.6,9.9,74.8
		C368.7,528.9,331.7,528.9,293.9,528.9z"/>
	<path d="M349.6,317.9c-34.8,0-69.7,0-104.5,0c-28.5,0-48.8-20.3-48.8-48.8c0-47,0-94,0-141c0-28.1,20.3-48.7,48.5-48.8
		c70-0.1,140-0.1,210,0c29.1,0.1,49.1,20.5,49.1,49.7c0,46.5,0,93,0,139.5c0,29.2-20.2,49.4-49.2,49.4
		C419.5,317.9,384.6,317.9,349.6,317.9z M350,287.4c34.3,0,68.7,0,103,0c14.2,0,20.1-5.9,20.1-19.9c0-46,0-92,0-138
		c0-13.5-6.1-19.6-19.4-19.6c-69.2,0-138.3,0-207.5,0c-13.1,0-19.4,6.2-19.4,19.2c0,45.8,0.3,91.6-0.2,137.5
		c-0.1,12.8,6.3,21.3,21.3,21.1C282,287.1,316,287.4,350,287.4z"/>
	<path d="M314.5,198.6c0-12.5-0.1-25,0-37.5c0.1-16.1,11.7-22.6,25.7-14.6c21.9,12.6,43.9,25.2,65.8,37.8c13,7.5,12.9,21.1-0.1,28.7
		c-22.2,12.8-44.4,25.6-66.6,38.4c-12.5,7.1-24.4,0.5-24.7-13.8C314.3,224.6,314.5,211.6,314.5,198.6z M345.3,212.7
		c8.5-4.9,16.1-9.2,24.4-14c-8.4-4.9-16.1-9.3-24.4-14C345.3,194.3,345.3,203,345.3,212.7z"/>
</g>
</svg>
